<mxfile host="65bd71144e">
    <diagram id="v8aIBl715_GQ_swg4lzb" name="Page-1">
        <mxGraphModel dx="724" dy="1790" grid="1" gridSize="10" guides="1" tooltips="1" connect="1" arrows="1" fold="1" page="1" pageScale="1" pageWidth="850" pageHeight="1100" math="0" shadow="0">
            <root>
                <mxCell id="0"/>
                <mxCell id="1" parent="0"/>
                <mxCell id="2" value="" style="rounded=1;whiteSpace=wrap;html=1;" vertex="1" parent="1">
                    <mxGeometry x="100" y="-550" width="100" height="40" as="geometry"/>
                </mxCell>
                <mxCell id="3" value="" style="rounded=1;whiteSpace=wrap;html=1;" vertex="1" parent="1">
                    <mxGeometry x="370" y="-550" width="100" height="40" as="geometry"/>
                </mxCell>
                <mxCell id="4" value="" style="rounded=1;whiteSpace=wrap;html=1;" vertex="1" parent="1">
                    <mxGeometry x="220" y="-430" width="100" height="40" as="geometry"/>
                </mxCell>
                <mxCell id="8" value="轮询" style="ellipse;whiteSpace=wrap;html=1;aspect=fixed;" vertex="1" parent="1">
                    <mxGeometry x="280" y="-250" width="50" height="50" as="geometry"/>
                </mxCell>
                <mxCell id="9" value="Future状态机" style="text;html=1;strokeColor=#82b366;fillColor=#d5e8d4;align=center;verticalAlign=middle;whiteSpace=wrap;rounded=0;" vertex="1" parent="1">
                    <mxGeometry x="210" y="-330" width="220" height="50" as="geometry"/>
                </mxCell>
                <mxCell id="11" value="等待" style="ellipse;whiteSpace=wrap;html=1;aspect=fixed;" vertex="1" parent="1">
                    <mxGeometry x="200" y="-170" width="50" height="50" as="geometry"/>
                </mxCell>
                <mxCell id="12" value="唤醒" style="ellipse;whiteSpace=wrap;html=1;aspect=fixed;" vertex="1" parent="1">
                    <mxGeometry x="350" y="-170" width="50" height="50" as="geometry"/>
                </mxCell>
                <mxCell id="13" value="Executor执行Poll" style="text;html=1;strokeColor=none;fillColor=none;align=center;verticalAlign=middle;whiteSpace=wrap;rounded=0;" vertex="1" parent="1">
                    <mxGeometry x="355" y="-250" width="40" height="20" as="geometry"/>
                </mxCell>
            </root>
        </mxGraphModel>
    </diagram>
</mxfile>